#!OML:ASF F:\VICON\USERDATA\INSTALL\rory3\rory3.ASF
:FULLY-SPECIFIED
:DEGREES
214
root 0.335858 17.8174 10.7198 -1.6994 -7.45656 -6.58732
lowerback 8.14213 2.50996 6.49416
upperback 0.338854 4.01338 1.78319
thorax -3.89698 1.88477 -2.22815
lowerneck -15.2954 -3.2808 -1.40166
upperneck 20.3401 -4.47284 1.14918
head 8.95589 -2.08249 0.079958
rclavicle 2.88524e-014 2.04593e-014
rhumerus -23.7519 -13.6959 -81.8238
rradius 27.772
rwrist 2.13348
rhand -19.4205 23.1178
rfingers 7.12502
rthumb 6.89929 -6.74974
lclavicle 2.88524e-014 2.04593e-014
lhumerus -36.9196 10.0792 80.9851
lradius 17.7176
lwrist -3.06048
lhand -24.2984 25.4078
lfingers 7.12502
lthumb 2.18914 55.3763
rfemur 12.0934 6.77808 32.3197
rtibia 31.8831
rfoot -13.4944 -1.34731
rtoes -7.57039
lfemur -21.8581 -5.38028 -11.6591
ltibia 14.5521
lfoot -0.951404 1.92225
ltoes -3.03341
215
root 0.357882 17.8354 10.9439 -1.56852 -6.96389 -6.01516
lowerback 7.79058 2.3877 6.00176
upperback 0.0629169 3.78734 1.63393
thorax -4.02769 1.77251 -2.07718
lowerneck -15.5069 -3.29851 -1.55591
upperneck 21.1364 -4.47197 1.13743
head 9.27372 -2.08813 0.0907337
rclavicle -1.37077e-014 5.66226e-015
rhumerus -24.2899 -14.1565 -81.5104
rradius 27.344
rwrist 2.77524
rhand -19.2733 23.3301
rfingers 7.12502
rthumb 7.04131 -6.53275
lclavicle -1.37077e-014 5.66226e-015
lhumerus -37.5326 10.1028 80.8598
lradius 17.9203
lwrist -2.81397
lhand -24.2346 26.6456
lfingers 7.12502
lthumb 2.25075 56.6134
rfemur 11.7148 6.03821 31.3465
rtibia 33.1104
rfoot -11.6885 -0.621582
rtoes -8.01041
lfemur -21.8433 -5.22467 -12.7211
ltibia 15.1009
lfoot -0.089253 0.493492
ltoes -2.4076
216
root 0.376115 17.8675 11.1741 -1.75925 -6.48152 -4.80283
lowerback 7.49057 2.25357 4.78447
upperback -0.0307079 3.4731 1.32859
thorax -4.0314 1.63783 -1.67417
lowerneck -15.9655 -3.18106 -1.56699
upperneck 22.0672 -4.32493 1.15351
head 9.68392 -2.00861 0.101243
rclavicle 1.65814e-014 1.67103e-014
rhumerus -24.8192 -14.5975 -81.2758
rradius 27.017
rwrist 3.35636
rhand -19.0151 23.3967
rfingers 7.12502
rthumb 7.29059 -6.45769
lclavicle 1.65814e-014 1.67103e-014
lhumerus -38.1674 9.87963 80.9064
lradius 18.2817
lwrist -1.56735
lhand -25.4172 26.2631
lfingers 7.12502
lthumb 1.1086 56.2399
rfemur 11.5118 5.35989 29.7197
rtibia 34.5568
rfoot -9.30791 0.0536039
rtoes -7.92092
lfemur -21.3857 -5.25302 -14.4535
ltibia 15.6321
lfoot 0.480207 -0.0472412
ltoes -2.676
217
root 0.386398 17.8941 11.4005 -2.01449 -6.01896 -3.89706
lowerback 7.45754 2.13021 3.76765
upperback -0.201373 3.21736 1.1302
thorax -4.24897 1.52383 -1.29081
lowerneck -15.9486 -3.1358 -1.58002
upperneck 22.6284 -4.27296 1.15543
head 9.8794 -1.98179 0.106707
rclavicle -1.00175e-014 5.08143e-015
rhumerus -25.5079 -14.9845 -80.9986
rradius 26.6528
rwrist 3.83492
rhand -18.8438 22.8493
rfingers 7.12502
rthumb 7.45589 -6.99934
lclavicle -1.00175e-014 5.08143e-015
lhumerus -38.6457 9.83979 80.8127
lradius 18.2579
lwrist -0.84383
lhand -26.218 24.1141
lfingers 7.12502
lthumb 0.335208 54.0936
rfemur 11.2438 4.65905 28.4508
rtibia 36.1102
rfoot -6.86695 0.69378
rtoes -7.16128
lfemur -20.7129 -5.09749 -15.7969
ltibia 16.0531
lfoot 0.927258 -0.367132
ltoes -2.11841
218
root 0.393429 17.9154 11.618 -2.42052 -5.58778 -3.31896
lowerback 7.62403 2.01932 3.04488
upperback -0.279303 3.01217 1.04312
thorax -4.465 1.43274 -0.965507
lowerneck -15.6532 -3.20998 -1.54039
upperneck 22.7998 -4.35305 0.982915
head 9.88042 -2.03693 0.0330698
rclavicle -3.2279e-014 -1.10325e-014
rhumerus -25.8829 -16.1108 -80.5384
rradius 25.9125
rwrist 4.89656
rhand -18.7005 22.5351
rfingers 7.12502
rthumb 7.59428 -7.30855
lclavicle -3.2279e-014 -1.10325e-014
lhumerus -38.8014 10.3256 80.45
lradius 17.9175
lwrist -0.917339
lhand -25.9857 23.1671
lfingers 7.12502
lthumb 0.55954 53.1461
rfemur 11.0226 4.11357 27.6396
rtibia 37.7428
rfoot -4.81863 1.06376
rtoes -3.96658
lfemur -19.8252 -4.79757 -16.7717
ltibia 16.3893
lfoot 1.37433 -0.82003
ltoes -2.53151
219
root 0.400972 17.9328 11.8299 -2.73782 -5.12256 -2.94109
lowerback 7.67944 1.92864 2.63658
upperback -0.25082 2.85064 0.925226
thorax -4.48562 1.36084 -0.843555
lowerneck -15.7534 -3.27189 -1.55669
upperneck 23.045 -4.45678 1.04737
head 9.99052 -2.07622 0.0405992
rclavicle -5.00621e-015 -1.11475e-014
rhumerus -26.1238 -17.4384 -80.1264
rradius 25.2963
rwrist 5.97342
rhand -18.5533 22.6634
rfingers 7.12502
rthumb 7.73632 -7.17505
lclavicle -5.00621e-015 -1.11475e-014
lhumerus -38.6848 10.7831 80.0277
lradius 17.5574
lwrist -1.20759
lhand -26.159 23.1652
lfingers 7.12502
lthumb 0.392216 53.1446
rfemur 10.5927 3.59694 27.0683
rtibia 39.4851
rfoot -2.31577 1.42168
rtoes -2.77127
lfemur -19.0618 -4.45789 -17.4999
ltibia 16.7117
lfoot 1.91839 -1.33467
ltoes -4.01873
220
root 0.412204 17.9431 12.0414 -2.92646 -4.80578 -2.81307
lowerback 7.62758 1.86985 2.4956
upperback -0.122273 2.75326 0.896078
thorax -4.33057 1.31875 -0.779396
lowerneck -16.2904 -3.25827 -1.69215
upperneck 23.2766 -4.43654 1.19655
head 10.1829 -2.05478 0.106693
rclavicle 2.39432e-014 7.76192e-015
rhumerus -26.3615 -18.2154 -79.8616
rradius 25.132
rwrist 6.55676
rhand -18.23 22.4686
rfingers 7.12502
rthumb 8.04838 -7.35812
lclavicle 2.39432e-014 7.76192e-015
lhumerus -38.2807 11.4511 79.5933
lradius 17.1081
lwrist -2.13202
lhand -26.0233 23.8446
lfingers 7.12502
lthumb 0.523264 53.8237
rfemur 9.92387 3.20178 26.7136
rtibia 41.3056
rfoot 0.777785 1.91426
rtoes -3.3531
lfemur -18.4534 -4.16704 -17.8374
ltibia 17.0155
lfoot 2.21525 -1.68427
ltoes -4.20156
221
root 0.424116 17.9628 12.2472 -2.98427 -4.67413 -2.50373
lowerback 7.6094 1.87833 2.17843
upperback -0.124095 2.73192 0.807605
thorax -4.33301 1.31421 -0.690721
lowerneck -16.5479 -3.30833 -1.87917
upperneck 23.3879 -4.51614 1.43489
head 10.2848 -2.07634 0.205441
rclavicle -3.75288e-014 4.95253e-015
rhumerus -26.8897 -19.3857 -79.4339
rradius 24.9467
rwrist 7.4136
rhand -17.8529 22.5366
rfingers 7.12502
rthumb 8.41227 -7.27582
lclavicle -3.75288e-014 4.95253e-015
lhumerus -37.9792 11.9215 79.2126
lradius 16.5679
lwrist -2.1845
lhand -26.0039 22.5556
lfingers 7.12502
lthumb 0.542026 52.5346
rfemur 8.92268 3.0841 26.156
rtibia 43.2684
rfoot 4.05829 2.3115
rtoes -1.6345
lfemur -17.9843 -3.747 -18.3332
ltibia 17.3201
lfoot 1.97707 -2.00673
ltoes -4.25381
